<svg t="1590078064511" class="icon" viewBox="0 0 1920 1024" version="1.1" xmlns="http://www.w3.org/2000/svg" p-id="1612" width="48" height="48"><path d="M85.45664 1016.768A84.8 84.8 0 0 1 0.01664 930.752c0-47.168 37.632-85.952 85.44-85.952h1749.12c47.232 0 85.44 38.784 85.44 85.952a85.12 85.12 0 0 1-85.44 86.016H85.45664z m0-422.656A84.928 84.928 0 0 1 0.01664 507.52c0-46.656 37.632-85.44 85.44-85.44h1749.12A85.76 85.76 0 0 1 1920.01664 507.52c0 48.896-38.208 86.592-85.44 86.592H85.45664z m0-423.232A84.48 84.48 0 0 1 0.01664 84.864C0.01664 38.208 37.64864 0 85.45664 0h1749.12C1881.80864 0 1920.01664 38.208 1920.01664 84.864c0 48.896-38.208 86.016-85.44 86.016H85.45664z" p-id="1613"></path></svg>